<?xml version="1.0" standalone="no"?><!DOCTYPE svg PUBLIC "-//W3C//DTD SVG 1.1//EN" "http://www.w3.org/Graphics/SVG/1.1/DTD/svg11.dtd"><svg t="1564384599766" class="icon" viewBox="0 0 1024 1024" version="1.1" xmlns="http://www.w3.org/2000/svg" p-id="2911" xmlns:xlink="http://www.w3.org/1999/xlink" width="1" height="1"><defs><style type="text/css"></style></defs><path d="M510.9 546c-29.8 29.8-59.4 59.2-88.9 88.7-104.8 104.6-209.7 209-314 314.1-14.3 14.4-38.5 11.8-43.8-9.1-2.7-10.7 1.6-19 9-26.4 48.6-48.4 97-96.8 145.5-145.3 82.1-82 164.2-164.1 246.4-246.1 3.4-3.4 6.1-6 12-11.7-3.3-2.8-271.2-269.4-402.6-400.4C67 102.3 61.6 94.3 63.9 83c3.7-18.2 24.7-25.9 39-14.3 4.2 3.4 8 7.5 11.8 11.4C244.5 209.8 374.2 339.4 504 469c2.1 2.1 4.4 4.2 7.1 6.8 2.8-2.7 5.4-5.1 7.9-7.6C650.2 337 781.5 205.9 912.7 74.8c7.7-7.7 15.6-13.8 27.1-10.8 18.3 4.6 25 26.3 12.5 40.8-6 6.9-12.8 13-19.3 19.5-127 126.8-253.9 253.6-380.8 380.4-1.9 1.9-3.7 4-6.7 7.1 3.8 3.4 7.6 6.4 11 9.8 130 129.8 260 259.6 389.9 389.4 1.7 1.7 3.5 3.4 5.1 5.2 9.5 10.5 9.4 25.2 0 34.9-9.3 9.5-24.2 10.1-34.2 0.3-18.8-18.3-37.2-36.9-55.7-55.4-114.8-114.7-229.7-229.4-344.5-344.2-1.9-1.9-4-3.7-6.2-5.8z" fill="#999999" p-id="2912"></path></svg>