<?xml version="1.0" standalone="no"?><!DOCTYPE svg PUBLIC "-//W3C//DTD SVG 1.1//EN" "http://www.w3.org/Graphics/SVG/1.1/DTD/svg11.dtd"><svg t="1564384642796" class="icon" viewBox="0 0 1024 1024" version="1.1" xmlns="http://www.w3.org/2000/svg" p-id="3771" xmlns:xlink="http://www.w3.org/1999/xlink" width="1" height="1"><defs><style type="text/css"></style></defs><path d="M967.768013 939.050947c-0.694983-17.302671-3.204908-34.533447-4.930383-51.791384-3.324733-33.263307-6.686212-66.523418-10.010945-99.788322-2.981236-29.812358-5.919335-59.62951-8.905364-89.440271-3.315147-33.106736-6.683017-66.208679-9.991773-99.315415-3.308756-33.108334-6.559997-66.22146-9.862363-99.329794-3.348698-33.578046-6.751716-67.151299-10.087633-100.730942-1.418723-14.273505-1.78299-28.725949-4.265755-42.807735-7.285335-41.299543-42.149498-70.119753-84.073727-70.300289-26.506797-0.115032-53.015192-0.022367-79.523587-0.022367-1.677544 0-3.353491 0-5.374532 0 0-18.053572 0.476103-35.554353-0.145387-53.01679-0.525631-14.771976-1.340438-29.660581-3.719355-44.221665C722.260205 98.845702 649.124068 23.80675 559.925044 6.315555c-10.640424-2.086546-21.464579-3.235264-32.204057-4.818546-9.46774 0-18.935481 0-28.403221 0-1.225406 0.258821-2.439629 0.656639-3.679414 0.758889-51.268949 4.193861-96.255893 23.332245-134.267449 57.880071-44.405396 40.356923-69.611697 90.712009-74.053195 150.651465-1.709498 23.078216-0.760487 46.351347-1.01771 69.536607-0.019172 1.65997-0.003195 3.31994-0.003195 5.200387-2.414066 0-4.137943 0-5.860221 0-27.296042 0.011184-54.596877-0.244442-81.889724 0.099055-38.858316 0.488884-74.126688 29.663776-80.61479 67.943739-3.599531 21.240906-4.622034 42.919571-6.772486 64.403322-2.986029 29.812358-5.932116 59.627912-8.911754 89.440271-3.34071 33.421475-6.705384 66.839755-10.046094 100.259632-3.278401 32.793594-6.523251 65.590384-9.811238 98.38238-3.633082 36.244543-7.307702 72.484292-10.948772 108.728835-3.388639 33.733019-6.822013 67.462843-10.094024 101.207046-0.94262 9.715378-2.581821 19.564959-1.877252 29.20365 3.276803 44.875108 40.000644 78.751917 85.07546 78.764698 245.987106 0.070297 491.972614 0.031953 737.959719 0.036746 11.498368 0 22.539805-2.231933 33.165849-6.61272C946.987233 1004.471979 969.092474 971.994721 967.768013 939.050947zM343.163955 224.936321c0.909069-79.915014 61.283089-150.462941 140.140452-163.904065 92.618019-15.784893 178.47154 42.68791 197.357493 134.578993 1.61204 7.846114 2.8007 15.912706 2.949283 23.901012 0.401013 21.752158 0.137399 43.517096 0.137399 65.810861-113.545783 0-226.75446 0-340.301841 0-0.115032-1.204637-0.327521-2.401285-0.327521-3.599531C343.108037 262.794502 342.948271 243.862216 343.163955 224.936321zM864.738036 966.177637c-4.024509 0.663029-8.152865 0.968183-12.23489 0.96978-225.957227 0.044735-451.916051 0.044735-677.873278 0.035149-30.718232-0.001598-54.194266-19.659221-58.047825-49.870995-1.151914-9.029981 0.643857-18.510503 1.634407-27.727411 3.840778-35.742877 7.898837-71.461789 11.878611-107.190287 4.276939-38.391799 8.563464-76.783598 12.830817-115.176995 3.623496-32.595484 7.219831-65.195762 10.836936-97.791246 3.617105-32.597082 7.290128-65.187773 10.856108-97.789648 2.792712-25.545005 5.880991-51.069241 8.066592-76.668567 2.463594-28.856957 26.479637-52.200385 55.454821-52.571043 18.301209-0.233259 36.607212-0.059113 54.910019-0.057516 0.918655 0 1.83731 0.087871 3.246448 0.158168 0 20.918178 0.081481 41.265992-0.154973 61.61061-0.019172 1.640798-1.902815 3.727344-3.47012 4.813753-35.202867 24.394689-32.269561 77.269287 5.464001 97.227271 26.489223 14.011489 59.276427 5.043816 74.96546-20.501189 15.783295-25.699978 8.817492-59.142223-16.121999-76.294714-3.008396-2.068971-3.982969-4.128357-3.952614-7.635223 0.162961-19.553776 0.078285-39.110747 0.078285-59.025594 113.545783 0 226.890261 0 340.570248 0 0.084676 1.303692 0.247637 2.668094 0.249235 4.030899 0.017574 18.619144-0.067102 37.239885 0.089469 55.857432 0.025563 3.077096-0.996941 4.713101-3.514855 6.424196-20.899006 14.206404-29.789991 39.733835-22.39921 63.674788 7.323679 23.723672 29.176489 39.965496 53.908285 40.064551 24.84523 0.099055 46.86899-15.866374 54.385986-39.423888 7.632028-23.918586-0.992148-49.674483-21.685056-63.908047-2.949283-2.02903-4.098001-3.995751-4.05806-7.585695 0.199708-18.144639 0.091067-36.290875 0.091067-54.437111 0-1.540145 0-3.080291 0-5.056598 8.616187 0 16.778638-0.09586 24.937894 0.02077 13.709531 0.196512 27.554863-0.597525 41.098237 1.04487 25.632877 3.109049 45.423106 25.680807 47.547996 51.487828 1.631212 19.791827 3.971786 39.526139 6.128628 59.271634 3.270413 29.936976 6.655857 59.861171 9.988578 89.790158 3.647461 32.750457 7.293323 65.500915 10.931198 98.25297 3.307159 29.775612 6.596743 59.551224 9.907097 89.326837 3.64107 32.752055 7.296519 65.502513 10.947175 98.25297 2.934904 26.326262 6.138214 52.626961 8.734414 78.986773C913.532207 934.879453 891.692178 961.740931 864.738036 966.177637z" p-id="3772" fill="#bfbfbf"></path></svg>